<?xml version="1.0" encoding="UTF-8"?>
<svg id="_レイヤー_1" data-name="レイヤー_1" xmlns="http://www.w3.org/2000/svg" viewBox="0 0 255 80">
  <defs>
    <style>
      .cls-1 {
        fill: #fff;
      }

      .cls-2 {
        fill: #ff5d00;
      }
    </style>
  </defs>
  <path class="cls-1" d="M78.88,61.96c-3.95,0-7.36-.93-10.24-2.8-2.88-1.92-5.09-4.51-6.64-7.76-1.55-3.25-2.32-6.85-2.32-10.8s.85-7.6,2.56-10.8c1.71-3.25,4.16-5.81,7.36-7.68,3.2-1.92,7.04-2.88,11.52-2.88s8.03.93,11.12,2.8c3.09,1.87,5.47,4.4,7.12,7.6,1.71,3.2,2.56,6.77,2.56,10.72v20.64h-7.44v-8.32h-.16c-.8,1.55-1.89,3.04-3.28,4.48-1.33,1.39-3.01,2.53-5.04,3.44-2.03.91-4.4,1.36-7.12,1.36ZM80.8,55.64c2.67,0,5.01-.64,7.04-1.92,2.08-1.33,3.68-3.15,4.8-5.44,1.17-2.35,1.76-4.96,1.76-7.84s-.56-5.36-1.68-7.6c-1.07-2.24-2.61-4-4.64-5.28-2.03-1.33-4.4-2-7.12-2-2.88,0-5.36.67-7.44,2-2.03,1.33-3.6,3.15-4.72,5.44-1.07,2.24-1.6,4.8-1.6,7.68s.53,5.31,1.6,7.6c1.07,2.24,2.61,4.03,4.64,5.36,2.03,1.33,4.48,2,7.36,2Z"/>
  <path class="cls-1" d="M113.08,61v-6.32h19.52c1.28,0,2.37-.27,3.28-.8.96-.59,1.68-1.33,2.16-2.24.48-.91.72-1.87.72-2.88,0-.96-.21-1.84-.64-2.64-.43-.85-1.09-1.52-2-2-.85-.53-1.89-.8-3.12-.8h-8.24c-2.61,0-4.91-.43-6.88-1.28-1.92-.91-3.44-2.21-4.56-3.92-1.07-1.71-1.6-3.79-1.6-6.24,0-2.08.51-4,1.52-5.76,1.01-1.76,2.43-3.17,4.24-4.24,1.81-1.12,3.89-1.68,6.24-1.68h18.8v6.32h-18.08c-1.65,0-2.96.51-3.92,1.52-.96,1.01-1.44,2.21-1.44,3.6s.48,2.51,1.44,3.52c1.01.96,2.43,1.44,4.24,1.44h7.84c2.93,0,5.39.48,7.36,1.44,2.03.91,3.55,2.24,4.56,4,1.07,1.76,1.6,3.92,1.6,6.48,0,2.19-.53,4.24-1.6,6.16-1.07,1.87-2.56,3.39-4.48,4.56-1.87,1.17-4.05,1.76-6.56,1.76h-20.4Z"/>
  <path class="cls-2" d="M171.26,79.5v-17.86c-2.99-.43-5.65-1.41-8-2.96-2.29-1.6-4.11-3.65-5.44-6.16-1.33-2.56-2-5.47-2-8.72v-23.6h7.44v23.52c0,2.45.53,4.59,1.6,6.4,1.07,1.76,2.48,3.12,4.24,4.08,1.81.96,3.73,1.44,5.76,1.44s4-.48,5.76-1.44c1.81-.96,3.25-2.32,4.32-4.08,1.12-1.81,1.68-3.95,1.68-6.4v-23.52h7.36v23.6c0,3.25-.67,6.13-2,8.64-1.28,2.51-3.09,4.56-5.44,6.16-2.29,1.55-4.93,2.56-7.92,3.04v17.86h-7.36Z"/>
  <path class="cls-1" d="M22.59,80c-4.43,0-8.37-1.03-11.81-3.09-3.36-2.13-6-4.91-7.91-8.34-1.91-3.43-2.87-7.16-2.87-11.2,0-3.66.84-7.09,2.52-10.29,1.76-3.2,4.28-5.71,7.57-7.54-3.21-2.06-5.66-4.61-7.34-7.66C1.07,28.84.23,25.64.23,22.29c0-4.11.96-7.85,2.87-11.2,1.99-3.35,4.66-6.02,8.03-8C14.48,1.03,18.19,0,22.24,0h48.76v9.71H23.5c-2.37,0-4.47.57-6.31,1.71-1.83,1.14-3.29,2.67-4.36,4.57-1.07,1.83-1.61,3.92-1.61,6.29,0,2.21.54,4.23,1.61,6.06,1.15,1.83,2.68,3.31,4.59,4.46,1.91,1.07,4.01,1.6,6.31,1.6h26.03v9.71h-25.22c-2.83,0-5.27.65-7.34,1.94-1.99,1.22-3.55,2.86-4.7,4.91-1.07,1.98-1.61,4.11-1.61,6.4s.54,4.42,1.61,6.4c1.07,1.98,2.6,3.58,4.59,4.8,1.99,1.14,4.32,1.71,6.99,1.71h137.42v9.71H22.59Z"/>
  <path class="cls-1" d="M188,80v-9.76h46.06c1.93,0,3.59-.41,4.96-1.24,1.45-.91,2.54-2.06,3.26-3.46.73-1.4,1.09-2.88,1.09-4.45,0-1.48-.32-2.84-.97-4.08-.65-1.32-1.65-2.35-3.02-3.09-1.29-.82-2.86-1.24-4.72-1.24h-12.46c-3.95,0-7.42-.66-10.4-1.98-2.9-1.4-5.2-3.42-6.89-6.05-1.61-2.64-2.42-5.85-2.42-9.64,0-3.21.77-6.18,2.3-8.89,1.53-2.72,3.67-4.9,6.41-6.55,2.74-1.73,5.88-2.59,9.43-2.59h28.42v9.76h-27.33c-2.5,0-4.47.78-5.93,2.35-1.45,1.56-2.18,3.42-2.18,5.56s.72,3.87,2.18,5.44c1.53,1.48,3.67,2.22,6.41,2.22h11.85c4.43,0,8.14.74,11.12,2.22,3.06,1.4,5.36,3.46,6.89,6.18,1.61,2.72,2.42,6.05,2.42,10.01,0,3.38-.81,6.55-2.42,9.51-1.61,2.88-3.87,5.23-6.77,7.04-2.82,1.81-6.13,2.72-9.92,2.72h-47.39Z"/>
  <path class="cls-2" d="M184.7,28.8c-.68.69-1.35,1.12-1.82,1.37-.21.12-.61.32-1.15.52-.71.25-1.27.34-1.81.43-.8.12-1.41.14-1.93.16-.55.02-1.27.02-2.11-.05-.8-.04-1.47-.05-1.97-.05-.61,0-.96.02-1.17.03-.19.01-.64.04-1.07.1-.45.06-1.36.19-2.4.68-.4.19-.94.48-1.51.95-.73.58-1.26,1.16-1.62,1.61-.16.2-.64.83-1.1,1.74-.08.15-.43.87-.73,1.87-.11.36-.24.83-.33,1.47-.08.59-.09,1.09-.08,1.47.12-.23.25-.44.36-.62.17-.27.33-.48.44-.64.06-.08.22-.29.44-.55.07-.08.18-.2.33-.37.21-.22.49-.52.86-.85.15-.13.54-.47,1.11-.85.8-.53,1.46-.82,1.65-.9.3-.13.74-.31,1.35-.45.69-.16,1.29-.2,1.69-.22.36-.02.51-.01,1.06-.05.23-.01.47-.03.9-.07.92-.09,1.38-.13,1.83-.2.73-.11,1.27-.23,1.65-.33.56-.13,1.08-.26,1.76-.5.27-.1.63-.23,1.09-.45.43-.21.78-.42,1.04-.59-.22.26-.49.54-.81.82-.13.11-.46.4-.95.71-.36.23-.7.41-1.01.56l-.95.33c-.22.08-.55.18-.94.27-.33.08-.59.13-.79.16-.82.14-1.27.2-1.78.28-.79.12-1.26.2-1.88.36-.32.08-.83.22-1.48.47-.28.11-1.07.44-2,1.04-.62.4-1.04.75-1.51,1.15-.31.26-.71.6-1.2,1.1-.37.39-.64.71-.82.92-.26.32-.52.64-.83,1.09-.09.14-.42.64-.77,1.34-.11.23-.27.55-.43,1-.11.3-.18.54-.25.79-.09.31-.16.55-.21.87-.02.12-.04.23-.07.45-.08.6-.05.56-.09.68,0,0-.04.13-.04.31,0,.02,0,.06.01.1.01.04.03.07.05.11.03.05.04.08.07.1.03.03.06.05.09.07.04.03.08.04.11.05.06.02.1.03.15.03.05,0,.08-.02.14-.04.03-.01.08-.03.13-.07.03-.02.07-.05.1-.1.02-.02.04-.06.06-.12.03-.09.04-.16.04-.23,0-.07.02-.16.05-.28.04-.13.07-.24.09-.32.04-.12.05-.18.08-.25.04-.12.05-.13.11-.28.06-.17.06-.17.1-.29.02-.06.03-.07.14-.29.14-.29.13-.29.15-.33.08-.16.16-.27.2-.34.02-.02.09-.13.2-.27.07-.09.14-.17.24-.28.11-.12.21-.2.27-.25.13-.11.25-.19.31-.23.14-.1.32-.21.56-.31.11-.04.19-.07.34-.11.11-.03.24-.07.41-.1.15-.03.27-.04.31-.04.16-.01.28-.01.33-.01.18,0,.25.02.5.05.25.03.22.01.47.04.26.03.28.04.57.07.21.02.19.01.39.04.18.02.24.03.47.06.13.02.13.01.28.03.31.04.37.05.58.07.17.02.3.03.56.05.17.01.35.03.59.04.33.01.31,0,.69.02.29.01.38.02.58.02.18,0,.32-.01.42-.02h.3s.33-.04.33-.04c.09,0,.2-.02.34-.03.05,0,.24-.03.52-.07.25-.04.38-.06.53-.09.17-.04.14-.04.53-.14.27-.07.29-.07.42-.11.11-.03.12-.04.41-.14.26-.09.25-.08.36-.12.18-.07.31-.13.47-.2.28-.12.48-.23.53-.26.19-.1.34-.19.42-.24.1-.06.19-.12.26-.17l.28-.19.31-.23c.09-.06.22-.15.37-.27.13-.1.22-.18.39-.33.19-.16.28-.24.4-.35.12-.11.21-.2.35-.35.14-.15.25-.26.37-.4.17-.2.29-.34.44-.54.17-.22.27-.34.39-.53.09-.13.17-.27.33-.53.16-.27.24-.4.34-.59.11-.21.19-.36.26-.52.08-.17.19-.4.31-.66.06-.17.12-.33.18-.5.1-.23.17-.43.21-.56.05-.17.05-.21.14-.51.04-.15.04-.14.14-.47.09-.31.13-.46.15-.55.04-.2.03-.19.09-.53.06-.35.08-.36.12-.6.02-.13.01-.11.06-.51.04-.36.05-.37.07-.6.02-.17.04-.33.05-.53.01-.18.02-.32.02-.43,0-.21,0-.39.01-.5.01-.25.02-.36.02-.55,0-.2,0-.37-.01-.47v-.34c-.02-.2-.04-.39-.06-.6-.01-.14-.02-.28-.04-.42Z"/>
</svg>