<svg width="7492" height="320" viewBox="0 0 7492 320" fill="none" xmlns="http://www.w3.org/2000/svg">
<path d="M29.12 300V63.2H174.4V102.56H76.48V157.28H159.36V197.28H76.48V260.32H177.92V300H29.12ZM195.595 300L271.435 63.2H327.115L402.955 300H353.355L319.435 176.8C312.395 152.16 305.675 124.64 298.955 99.36H297.675C291.275 124.96 284.555 152.16 277.515 176.8L243.595 300H195.595ZM242.635 239.2V202.72H355.275V239.2H242.635ZM430.995 300V63.2H513.235C562.835 63.2 602.195 80.48 602.195 134.88C602.195 187.68 562.835 210.72 513.235 210.72H478.355V300H430.995ZM478.355 173.28H508.755C539.475 173.28 556.115 160.16 556.115 134.88C556.115 109.6 539.475 100.96 508.755 100.96H478.355V173.28ZM559.635 300L504.595 198.56L537.555 168.8L612.435 300H559.635ZM740 304.48C682.08 304.48 647.84 272.16 647.84 193.76V63.2H694.88V197.92C694.88 246.88 712.16 263.52 740 263.52C767.84 263.52 786.08 246.88 786.08 197.92V63.2H831.52V193.76C831.52 272.16 797.92 304.48 740 304.48ZM874.735 225.44V191.84H962.415V225.44H874.735ZM1006.93 300V63.2H1152.85V102.56H1054.29V164.64H1138.45V204H1054.29V300H1006.93ZM1194.12 300V63.2H1241.48V300H1194.12ZM1299.75 300V63.2H1381.99C1431.59 63.2 1470.95 80.48 1470.95 134.88C1470.95 187.68 1431.59 210.72 1381.99 210.72H1347.11V300H1299.75ZM1347.11 173.28H1377.51C1408.23 173.28 1424.87 160.16 1424.87 134.88C1424.87 109.6 1408.23 100.96 1377.51 100.96H1347.11V173.28ZM1428.39 300L1373.35 198.56L1406.31 168.8L1481.19 300H1428.39ZM1582.03 304.48C1550.03 304.48 1518.67 292.32 1495.63 270.24L1522.83 237.6C1539.47 253.28 1562.19 263.52 1582.99 263.52C1607.63 263.52 1620.43 252.96 1620.43 236.64C1620.43 219.04 1606.03 213.28 1584.91 204.32L1553.23 190.88C1529.55 181.28 1505.23 161.76 1505.23 127.52C1505.23 88.8 1539.47 59.04 1587.15 59.04C1614.67 59.04 1642.19 69.92 1661.39 89.44L1637.71 119.2C1622.35 106.72 1606.67 99.68 1587.15 99.68C1566.35 99.68 1553.23 108.96 1553.23 124.32C1553.23 141.28 1570.19 147.68 1590.35 155.68L1621.39 168.48C1649.87 180.32 1668.75 198.88 1668.75 232.8C1668.75 271.52 1636.43 304.48 1582.03 304.48ZM1748.97 300V102.56H1682.09V63.2H1863.21V102.56H1796.33V300H1748.97Z" fill="#333333" fill-opacity="0.2"/>
<path d="M1902.12 300V63.2H2047.4V102.56H1949.48V157.28H2032.36V197.28H1949.48V260.32H2050.92V300H1902.12ZM2068.59 300L2144.44 63.2H2200.12L2275.96 300H2226.36L2192.44 176.8C2185.4 152.16 2178.68 124.64 2171.96 99.36H2170.68C2164.28 124.96 2157.56 152.16 2150.52 176.8L2116.6 300H2068.59ZM2115.64 239.2V202.72H2228.28V239.2H2115.64ZM2304 300V63.2H2386.24C2435.84 63.2 2475.2 80.48 2475.2 134.88C2475.2 187.68 2435.84 210.72 2386.24 210.72H2351.36V300H2304ZM2351.36 173.28H2381.76C2412.48 173.28 2429.12 160.16 2429.12 134.88C2429.12 109.6 2412.48 100.96 2381.76 100.96H2351.36V173.28ZM2432.64 300L2377.6 198.56L2410.56 168.8L2485.44 300H2432.64ZM2613 304.48C2555.08 304.48 2520.84 272.16 2520.84 193.76V63.2H2567.88V197.92C2567.88 246.88 2585.16 263.52 2613 263.52C2640.84 263.52 2659.08 246.88 2659.08 197.92V63.2H2704.52V193.76C2704.52 272.16 2670.92 304.48 2613 304.48ZM2747.74 225.44V191.84H2835.42V225.44H2747.74ZM2879.93 300V63.2H3025.85V102.56H2927.29V164.64H3011.45V204H2927.29V300H2879.93ZM3067.12 300V63.2H3114.48V300H3067.12ZM3172.75 300V63.2H3254.99C3304.59 63.2 3343.95 80.48 3343.95 134.88C3343.95 187.68 3304.59 210.72 3254.99 210.72H3220.11V300H3172.75ZM3220.11 173.28H3250.51C3281.23 173.28 3297.87 160.16 3297.87 134.88C3297.87 109.6 3281.23 100.96 3250.51 100.96H3220.11V173.28ZM3301.39 300L3246.35 198.56L3279.31 168.8L3354.19 300H3301.39ZM3455.03 304.48C3423.03 304.48 3391.67 292.32 3368.63 270.24L3395.83 237.6C3412.47 253.28 3435.19 263.52 3455.99 263.52C3480.63 263.52 3493.43 252.96 3493.43 236.64C3493.43 219.04 3479.03 213.28 3457.91 204.32L3426.23 190.88C3402.55 181.28 3378.23 161.76 3378.23 127.52C3378.23 88.8 3412.47 59.04 3460.15 59.04C3487.67 59.04 3515.19 69.92 3534.39 89.44L3510.71 119.2C3495.35 106.72 3479.67 99.68 3460.15 99.68C3439.35 99.68 3426.23 108.96 3426.23 124.32C3426.23 141.28 3443.19 147.68 3463.35 155.68L3494.39 168.48C3522.87 180.32 3541.75 198.88 3541.75 232.8C3541.75 271.52 3509.43 304.48 3455.03 304.48ZM3621.97 300V102.56H3555.09V63.2H3736.21V102.56H3669.33V300H3621.97Z" fill="#333333" fill-opacity="0.2"/>
<path d="M3775.12 300V63.2H3920.4V102.56H3822.48V157.28H3905.36V197.28H3822.48V260.32H3923.92V300H3775.12ZM3941.59 300L4017.44 63.2H4073.12L4148.96 300H4099.36L4065.44 176.8C4058.4 152.16 4051.68 124.64 4044.96 99.36H4043.68C4037.28 124.96 4030.56 152.16 4023.52 176.8L3989.6 300H3941.59ZM3988.64 239.2V202.72H4101.28V239.2H3988.64ZM4177 300V63.2H4259.24C4308.84 63.2 4348.2 80.48 4348.2 134.88C4348.2 187.68 4308.84 210.72 4259.24 210.72H4224.36V300H4177ZM4224.36 173.28H4254.76C4285.48 173.28 4302.12 160.16 4302.12 134.88C4302.12 109.6 4285.48 100.96 4254.76 100.96H4224.36V173.28ZM4305.64 300L4250.6 198.56L4283.56 168.8L4358.44 300H4305.64ZM4486 304.48C4428.08 304.48 4393.84 272.16 4393.84 193.76V63.2H4440.88V197.92C4440.88 246.88 4458.16 263.52 4486 263.52C4513.84 263.52 4532.08 246.88 4532.08 197.92V63.2H4577.52V193.76C4577.52 272.16 4543.92 304.48 4486 304.48ZM4620.74 225.44V191.84H4708.42V225.44H4620.74ZM4752.93 300V63.2H4898.85V102.56H4800.29V164.64H4884.45V204H4800.29V300H4752.93ZM4940.12 300V63.2H4987.48V300H4940.12ZM5045.75 300V63.2H5127.99C5177.59 63.2 5216.95 80.48 5216.95 134.88C5216.95 187.68 5177.59 210.72 5127.99 210.72H5093.11V300H5045.75ZM5093.11 173.28H5123.51C5154.23 173.28 5170.87 160.16 5170.87 134.88C5170.87 109.6 5154.23 100.96 5123.51 100.96H5093.11V173.28ZM5174.39 300L5119.35 198.56L5152.31 168.8L5227.19 300H5174.39ZM5328.03 304.48C5296.03 304.48 5264.67 292.32 5241.63 270.24L5268.83 237.6C5285.47 253.28 5308.19 263.52 5328.99 263.52C5353.63 263.52 5366.43 252.96 5366.43 236.64C5366.43 219.04 5352.03 213.28 5330.91 204.32L5299.23 190.88C5275.55 181.28 5251.23 161.76 5251.23 127.52C5251.23 88.8 5285.47 59.04 5333.15 59.04C5360.67 59.04 5388.19 69.92 5407.39 89.44L5383.71 119.2C5368.35 106.72 5352.67 99.68 5333.15 99.68C5312.35 99.68 5299.23 108.96 5299.23 124.32C5299.23 141.28 5316.19 147.68 5336.35 155.68L5367.39 168.48C5395.87 180.32 5414.75 198.88 5414.75 232.8C5414.75 271.52 5382.43 304.48 5328.03 304.48ZM5494.97 300V102.56H5428.09V63.2H5609.21V102.56H5542.33V300H5494.97Z" fill="#333333" fill-opacity="0.2"/>
<path d="M5648.12 300V63.2H5793.4V102.56H5695.48V157.28H5778.36V197.28H5695.48V260.32H5796.92V300H5648.12ZM5814.59 300L5890.44 63.2H5946.12L6021.96 300H5972.36L5938.44 176.8C5931.4 152.16 5924.68 124.64 5917.96 99.36H5916.68C5910.28 124.96 5903.56 152.16 5896.52 176.8L5862.6 300H5814.59ZM5861.64 239.2V202.72H5974.28V239.2H5861.64ZM6050 300V63.2H6132.24C6181.84 63.2 6221.2 80.48 6221.2 134.88C6221.2 187.68 6181.84 210.72 6132.24 210.72H6097.36V300H6050ZM6097.36 173.28H6127.76C6158.48 173.28 6175.12 160.16 6175.12 134.88C6175.12 109.6 6158.48 100.96 6127.76 100.96H6097.36V173.28ZM6178.64 300L6123.6 198.56L6156.56 168.8L6231.44 300H6178.64ZM6359 304.48C6301.08 304.48 6266.84 272.16 6266.84 193.76V63.2H6313.88V197.92C6313.88 246.88 6331.16 263.52 6359 263.52C6386.84 263.52 6405.08 246.88 6405.08 197.92V63.2H6450.52V193.76C6450.52 272.16 6416.92 304.48 6359 304.48ZM6493.74 225.44V191.84H6581.42V225.44H6493.74ZM6625.93 300V63.2H6771.85V102.56H6673.29V164.64H6757.45V204H6673.29V300H6625.93ZM6813.12 300V63.2H6860.48V300H6813.12ZM6918.75 300V63.2H7000.99C7050.59 63.2 7089.95 80.48 7089.95 134.88C7089.95 187.68 7050.59 210.72 7000.99 210.72H6966.11V300H6918.75ZM6966.11 173.28H6996.51C7027.23 173.28 7043.87 160.16 7043.87 134.88C7043.87 109.6 7027.23 100.96 6996.51 100.96H6966.11V173.28ZM7047.39 300L6992.35 198.56L7025.31 168.8L7100.19 300H7047.39ZM7201.03 304.48C7169.03 304.48 7137.67 292.32 7114.63 270.24L7141.83 237.6C7158.47 253.28 7181.19 263.52 7201.99 263.52C7226.63 263.52 7239.43 252.96 7239.43 236.64C7239.43 219.04 7225.03 213.28 7203.91 204.32L7172.23 190.88C7148.55 181.28 7124.23 161.76 7124.23 127.52C7124.23 88.8 7158.47 59.04 7206.15 59.04C7233.67 59.04 7261.19 69.92 7280.39 89.44L7256.71 119.2C7241.35 106.72 7225.67 99.68 7206.15 99.68C7185.35 99.68 7172.23 108.96 7172.23 124.32C7172.23 141.28 7189.19 147.68 7209.35 155.68L7240.39 168.48C7268.87 180.32 7287.75 198.88 7287.75 232.8C7287.75 271.52 7255.43 304.48 7201.03 304.48ZM7367.97 300V102.56H7301.09V63.2H7482.21V102.56H7415.33V300H7367.97Z" fill="#333333" fill-opacity="0.2"/>
</svg>
