<?xml version="1.0" encoding="UTF-8"?>
<svg id="_レイヤー_2" data-name="レイヤー 2" xmlns="http://www.w3.org/2000/svg" viewBox="0 0 813.29 302.19" width="813.29" height="302.19">
  <defs>
    <style>
      .cls-1 {
        fill: none;
        stroke-width: 0px;
      }
    </style>
  </defs>
  <g id="_レイヤー_1-2" data-name="レイヤー 1">
    <path class="cls-1" d="M287.75.37c13.22.53,25.83,1.94,28.2,2.21,2.95.34,9.85,1.15,19.8,2.75,11.5,1.84,27.78,4.84,48,9.78,17,2.91,34,5.83,51,8.74,16.79,2.58,34.37,4.88,52.7,6.78,21.99,2.28,43.07,3.79,63.13,4.7,24.79.19,44.85.92,58.7,1.57,28.39,1.31,34.82,2.44,58.3,2.74,9.32.12,15.81.04,26.61.78,12.37.85,24.13,1.66,36.78,4.7,11.44,2.74,30.01,7.2,47.35,21.91,15.37,13.05,23.23,28.62,27.26,39.26,3.03,7.27,6.79,18.69,7.57,33.13.84,15.74-2.26,27.71-3.52,32.09-1.52,5.26-5.72,18.13-16.04,31.7-2.72,3.57-12.12,15.4-28.57,25.3-12.97,7.81-24.24,10.75-34.83,13.43-5.93,1.5-16.22,3.76-35.22,5.09-16.33,1.14-26.43.7-56.74-.39-44.81-1.61-23.72-.7-57.91-1.96-30.19-1.11-38.24-1.51-52.83-1.04-17.9.57-31.49,1.99-37.04,2.61-19.22,2.15-33.5,5.01-43.57,7.04-10.36,2.1-27.79,5.92-48.78,12.13-8.77,2.59-20.03,5.92-34.57,11.35-7.76,2.9-10.59,4.2-17.61,6.52-6.68,2.21-15.08,4.65-28.96,7.57-11.09,2.33-26.63,5.17-46.57,7.43-22.4,2.54-39.42,3.12-52.04,3.52-25.21.8-43.93.12-50.09-.13-22.31-.91-33.46-1.37-46.96-4.17-4.73-.98-21.86-4.73-42.65-14.09-18-8.1-30.05-16.5-33.26-18.78-8.47-6.01-15.52-11.02-23.09-19.96-9.74-11.51-14.47-22.59-16.43-27.78-1.97-5.21-5.63-15.13-5.87-28.57-.1-5.81.46-10.68,1.04-14.22.55-5.77,1.64-12.34,3.65-19.43,4.75-16.7,12.65-29.18,18.91-37.3,8.47-9.64,18.78-20.18,31.17-30.78,14.13-12.09,27.8-21.57,39.91-28.96,10.19-6.39,24.07-14.56,41.09-23.09,12.38-6.2,24.18-12.12,40.7-18,23.41-8.34,42.85-11.83,52.43-13.3C255.92-.9,276.88-.06,287.75.37Z"/>
  </g>
</svg>