<?xml version="1.0" encoding="UTF-8"?>
<svg id="_レイヤー_2" data-name="レイヤー 2" xmlns="http://www.w3.org/2000/svg" viewBox="0 0 257.65 692.89">
  <defs>
    <style>
      .cls-1 {
        fill: none;
        stroke-width: 0px;
      }
    </style>
  </defs>
  <g id="_レイヤー_1-2" data-name="レイヤー 1">
    <path class="cls-1" d="M163.65.09c21.93,1.95,45.6,14.36,59.2,34.89,11.68,15.19,20.9,33.1,26.02,54.2,10.76,25.04,8.61,99,8.61,99,0,0-1.83,46.17-5.22,59.22-2.24,14.96-5.46,28.71-9.26,41.74,0,0-11.09,31.17-12.33,34.63s-11.93,41.28-13.74,48.79c-2.15,9.17-6.41,35.63-7.19,42.19s-2.15,20.69-2.35,30.13,2.05,73.57,2.05,73.57l1.27,59.87c.24,12.29-.29,22.5-2.54,32.87-2,12.67-6.3,24.74-12.13,36.39-4.5,8.61-10.02,16.54-17.61,23.87-6.62,6.15-20.09,12.98-22.7,14.09s-14.47,5.92-22.3,7.04c0,0-11.84.73-17.22,0s-18.62-3.26-23.09-5.09-20.67-11.35-17.61-9.39-15.07-8.9-23.09-19.57-11.35-21.42-12.91-28.17-3.13-12.13-4.3-22.3-2.74-47.35-2.74-47.35l-1.96-50.48-1.57-56.35-2.74-23.48-2.74-30.52-5.48-38.74-5.87-33.65-5.09-24.65-4.3-24.65-1.96-20.35-.78-33.65,1.57-21.52,5.09-28.17c2.56-11.61,5.85-22.29,10.17-33.65l12.52-25.43c6.77-13.62,13.32-26.01,19.17-34.43,6.48-10.68,14.3-21.22,22.7-31.7,6.59-8.61,14.28-16.49,22.7-23.87,10.85-8.67,21.62-16.15,32.09-19.17C138.9,1.82,151.49-.48,163.65.09Z"/>
  </g>
</svg>